<?xml version="1.0" encoding="UTF-8" standalone="no"?>
<!-- Created with Inkscape (http://www.inkscape.org/) -->

<svg
   width="1080"
   height="1080"
   viewBox="0 0 285.74999 285.75"
   version="1.1"
   id="svg1"
   xml:space="preserve"
   sodipodi:docname="Golden SD.svg"
   inkscape:export-filename="C:\Users\Hp\Documents\Python Projects\Python_WebApp\Ctf_Platform\ctf_platform\app\static\logo.png"
   inkscape:export-xdpi="96"
   inkscape:export-ydpi="96"
   xmlns:inkscape="http://www.inkscape.org/namespaces/inkscape"
   xmlns:sodipodi="http://sodipodi.sourceforge.net/DTD/sodipodi-0.dtd"
   xmlns="http://www.w3.org/2000/svg"
   xmlns:svg="http://www.w3.org/2000/svg"><sodipodi:namedview
     id="namedview1"
     pagecolor="#ffffff"
     bordercolor="#000000"
     borderopacity="0.25"
     inkscape:showpageshadow="2"
     inkscape:pageopacity="0.0"
     inkscape:pagecheckerboard="0"
     inkscape:deskcolor="#d1d1d1"
     inkscape:export-bgcolor="#ffffff00"><inkscape:page
       x="0"
       y="0"
       width="285.75"
       height="285.75"
       id="page2"
       margin="0"
       bleed="0" /></sodipodi:namedview><defs
     id="defs1" /><path
     style="fill:#1ae806;fill-opacity:1;stroke-width:4.14418;stroke-opacity:0.924138;paint-order:stroke fill markers"
     d="m 23.484029,245.10264 c -0.596212,-0.24113 -0.625686,-0.51663 -0.814308,-7.61214 -0.10764,-4.04907 -0.195998,-46.78028 -0.196353,-94.95822 l -4.37e-4,-87.596262 -1.926251,-2.4449 c -1.059443,-1.344696 -1.926256,-2.654317 -1.926256,-2.910277 0,-0.608322 2.070318,-3.279328 3.721669,-4.801492 2.036768,-1.87743 2.723082,-1.735105 5.509414,1.142496 1.24807,1.288952 2.356661,2.619064 2.46354,2.955809 0.268602,0.8463 -0.543701,2.431045 -2.176741,4.246647 l -1.368348,1.521319 -0.07782,7.135162 c -0.04667,4.279352 0.03792,7.313079 0.21141,7.57968 0.25598,0.393432 14.161607,0.465661 120.987282,0.628436 66.38392,0.101154 121.39816,0.286423 122.25386,0.411711 0.85569,0.125288 1.55582,0.282306 1.55582,0.348929 0,0.406004 -2.55317,3.943841 -6.37589,8.834888 -2.4204,3.096823 -6.00121,7.764285 -7.95732,10.372133 -1.95612,2.607849 -7.91426,10.409171 -13.24033,17.336281 -10.48893,13.64196 -11.24788,14.67717 -11.24788,15.34234 0,0.24326 0.9453,1.76633 2.10068,3.38459 2.07849,2.91124 20.95351,27.00959 29.89789,38.17164 5.97008,7.4503 7.24532,9.1594 7.00988,9.39484 -0.15635,0.15635 -141.98782,0.57128 -225.63279,0.6601 l -19.632966,0.0208 -0.02746,27.33799 c -0.01511,15.03588 -0.115116,30.84937 -0.222261,35.14108 -0.181192,7.25794 -0.234996,7.83251 -0.770051,8.22363 -0.6415,0.46894 -1.199989,0.50395 -2.117782,0.13275 z M 262.58764,169.92371 c 0.7742,-0.098 1.40764,-0.2905 1.40764,-0.4279 0,-0.47596 -11.59014,-15.23851 -16.31632,-20.78237 l -2.20534,-2.58688 -60.75107,0.18314 -60.75107,0.18313 -0.92109,0.98746 c -1.78243,1.91084 -3.35696,1.84974 -5.3272,-0.20675 -1.61124,-1.68177 -0.92622,-4.22446 1.45732,-5.40929 1.34636,-0.66925 2.28168,-0.41627 4.1641,1.12622 l 1.2806,1.04936 59.09065,-0.004 c 34.4663,-0.003 59.26612,-0.1156 59.51173,-0.27105 0.54379,-0.34419 0.40888,-0.54896 -4.05698,-6.15844 -9.15943,-11.50494 -11.55159,-14.79894 -11.15808,-15.36466 0.15013,-0.21585 3.823,-4.97097 8.16192,-10.56691 8.04871,-10.3805 12.11447,-15.829447 12.11447,-16.235875 0,-0.125092 -0.70013,-0.304639 -1.55583,-0.398994 -0.8557,-0.09433 -34.90687,-0.261074 -75.66925,-0.370475 L 96.950406,94.470352 91.024336,89.102003 C 87.764999,86.149408 84.126858,82.833502 82.93957,81.733315 L 80.780873,79.732974 H 53.701229 26.62158 v 8.297712 c 0,4.56374 0.03333,8.322683 0.07408,8.353222 0.04077,0.03051 10.366213,0.130558 22.945476,0.222268 22.298292,0.162555 22.88985,0.181588 23.608325,0.759432 0.405321,0.325973 2.515303,2.226691 4.688856,4.223812 2.173552,1.99711 4.418659,3.8605 4.989131,4.14086 0.960604,0.4721 3.807099,0.51806 38.537872,0.62211 l 37.50066,0.11235 0.85474,-1.23338 c 1.05376,-1.52058 1.53857,-1.79064 3.21455,-1.79064 1.16242,0 1.44546,0.14046 2.39026,1.18623 1.49695,1.65695 1.47422,2.85038 -0.0861,4.52317 -1.5744,1.68784 -2.89247,1.72439 -4.93034,0.1367 l -1.41775,-1.10456 H 120.47271 81.954144 l -1.513691,-1.29869 c -0.832522,-0.71429 -2.966533,-2.6419 -4.742244,-4.28359 -1.775707,-1.64169 -3.662846,-3.190977 -4.19364,-3.442857 -1.128587,-0.535549 -5.565626,-0.574564 -29.720568,-0.261345 L 26.62158,99.09239 v 22.16375 22.16374 l 7.927273,0.0927 7.927273,0.0927 4.593377,-4.60891 c 2.526353,-2.53489 6.593714,-6.78568 9.03857,-9.44621 2.444862,-2.66053 4.778593,-4.98943 5.18607,-5.17535 0.52341,-0.23882 5.271826,-0.34163 16.177675,-0.35028 l 15.436818,-0.0123 3.08485,-3.29146 3.08486,-3.29146 49.808684,-0.0302 49.80867,-0.0302 0.71339,-0.75937 c 1.14223,-1.21584 2.58668,-1.98783 3.35743,-1.79439 1.07855,0.2707 3.14481,2.68615 3.14481,3.67627 0,1.39462 -2.22941,3.32269 -3.84201,3.32269 -0.299,0 -1.23721,-0.46675 -2.08492,-1.03722 l -1.54129,-1.0372 h -49.09474 -49.09474 l -3.249704,3.25981 -3.24971,3.25981 -15.711432,0.0106 -15.711428,0.0107 -4.726597,4.95315 c -2.599628,2.72422 -6.830558,7.12017 -9.40207,9.76877 l -4.675472,4.81563 H 35.074396 26.62158 v 11.113 c 0,6.11215 0.11368,11.113 0.252619,11.113 0.287031,0 6.703582,-6.53968 10.267686,-10.46473 l 2.370777,-2.61086 7.853187,0.0923 7.853187,0.0923 3.352774,-3.70435 c 1.844024,-2.03737 4.795366,-5.22332 6.55853,-7.07986 3.00145,-3.16043 3.297713,-3.39066 4.648588,-3.61258 0.793555,-0.13039 6.643712,-0.24887 13.000347,-0.26332 l 11.557521,-0.0262 5.13946,-5.47381 5.139464,-5.47381 h 19.85636 19.85636 l 1.34668,-1.18539 c 1.55094,-1.3652 2.63662,-1.52025 4.15643,-0.59361 1.43052,0.87219 2.04184,2.33532 1.59663,3.82131 -0.44599,1.48856 -1.84583,2.69923 -3.12099,2.69923 -0.9098,0 -3.42851,-1.33127 -3.86989,-2.04545 -0.23227,-0.37582 -17.04588,-0.44638 -30.79832,-0.12924 l -8.50266,0.19607 -4.94194,5.28635 -4.941924,5.28633 H 82.445962 69.639481 l -4.582367,4.81563 c -2.520302,2.6486 -5.558047,5.91582 -6.750548,7.2605 l -2.168179,2.44486 h -7.751529 -7.751525 l -5.997627,6.09653 c -3.298694,3.3531 -5.907295,6.18691 -5.796896,6.29737 0.365062,0.36524 64.883446,0.55723 149.21394,0.44403 45.71889,-0.0613 83.75869,-0.19172 84.53289,-0.28966 z M 252.6745,90.282637 c 2.09255,-2.457477 11.89863,-15.565346 11.90843,-15.918085 0.003,-0.100092 -0.61367,-0.266785 -1.36987,-0.370436 -0.7562,-0.103643 -54.33199,-0.188692 -119.05728,-0.18899 l -117.682374,-4.39e-4 0.100404,1.778619 0.100415,1.778618 h 27.342886 27.342887 l 2.043205,1.851672 c 1.123763,1.018421 4.125753,3.79338 6.671108,6.166577 2.545344,2.373196 5.359625,4.940031 6.253945,5.704074 l 1.62605,1.389179 39.235274,0.07632 c 21.57939,0.04196 55.91453,0.109119 76.30031,0.149258 l 37.06505,0.07299 z"
     id="path7" /></svg>
